<svg width="1171" height="613" viewBox="0 0 1171 613" fill="none" xmlns="http://www.w3.org/2000/svg">
<g clip-path="url(#clip0)">
<circle cx="297.628" cy="332.852" r="200.488" fill="#BEC2D4"/>
<rect x="288.63" y="222.704" width="18.2895" height="120.544" rx="9.14474" fill="#2D2D38"/>
<rect x="425.216" y="408.782" width="18.3654" height="153.429" rx="9.18268" transform="rotate(123.5 425.216 408.782)" fill="#2D2D38"/>
<path d="M581.914 250.527C599.789 263.757 587.201 292.031 565.409 287.6L357.221 245.267C344.195 242.619 336.969 228.591 342.376 216.447L379.8 132.392C385.206 120.249 400.466 116.232 411.151 124.14L581.914 250.527Z" fill="#494D5C"/>
<path d="M190.591 76.1347C168.798 71.7035 156.21 99.9773 174.085 113.207L344.848 239.594C355.533 247.502 370.793 243.486 376.199 231.342L413.623 147.287C419.03 135.144 411.804 121.116 398.778 118.467L190.591 76.1347Z" fill="#494D5C"/>
<rect x="540.205" y="255.564" width="23.7219" height="138.505" fill="#494D5C"/>
<path d="M547.599 376.268C549.434 372.578 554.697 372.578 556.531 376.268L577.307 418.044C578.956 421.359 576.544 425.253 572.841 425.253H531.289C527.586 425.253 525.174 421.359 526.823 418.044L547.599 376.268Z" fill="#494D5C"/>
<circle cx="552.065" cy="394.453" r="17.9827" fill="#494D5C"/>
<path d="M692.556 296.499C678.467 296.499 667.426 293.052 659.433 286.157C651.539 279.263 647.592 268.871 647.592 254.983V193.832C647.592 192.733 647.942 191.834 648.641 191.134C649.441 190.435 650.34 190.085 651.339 190.085H670.673C671.773 190.085 672.672 190.435 673.371 191.134C674.171 191.834 674.57 192.733 674.57 193.832V254.833C674.57 261.327 676.069 266.223 679.067 269.521C682.164 272.718 686.611 274.317 692.406 274.317C698.101 274.317 702.498 272.668 705.595 269.371C708.693 266.073 710.241 261.227 710.241 254.833V193.832C710.241 192.733 710.591 191.834 711.29 191.134C712.09 190.435 712.989 190.085 713.988 190.085H733.472C734.572 190.085 735.471 190.435 736.17 191.134C736.87 191.834 737.219 192.733 737.219 193.832V254.983C737.219 268.871 733.223 279.263 725.229 286.157C717.336 293.052 706.444 296.499 692.556 296.499ZM760.842 295C759.842 295 758.943 294.65 758.144 293.951C757.444 293.152 757.095 292.252 757.095 291.253V193.832C757.095 192.733 757.444 191.834 758.144 191.134C758.943 190.435 759.842 190.085 760.842 190.085H829.786C830.885 190.085 831.784 190.435 832.483 191.134C833.183 191.834 833.533 192.733 833.533 193.832V208.97C833.533 209.969 833.183 210.868 832.483 211.668C831.784 212.367 830.885 212.717 829.786 212.717H783.473V234.749H826.788C827.887 234.749 828.786 235.149 829.486 235.948C830.185 236.647 830.535 237.547 830.535 238.646V253.634C830.535 254.633 830.185 255.532 829.486 256.331C828.786 257.031 827.887 257.381 826.788 257.381H783.473V291.253C783.473 292.352 783.124 293.251 782.424 293.951C781.725 294.65 780.825 295 779.726 295H760.842ZM892.327 296.499C877.939 296.499 866.698 293.002 858.604 286.007C850.511 278.913 846.214 268.871 845.715 255.882C845.615 252.984 845.565 248.388 845.565 242.093C845.565 235.798 845.615 231.202 845.715 228.304C846.214 215.614 850.561 205.822 858.754 198.928C867.048 192.034 878.238 188.586 892.327 188.586C901.819 188.586 910.063 190.135 917.057 193.233C924.151 196.33 929.547 200.277 933.244 205.073C937.041 209.869 939.039 214.815 939.239 219.911C939.239 220.81 938.889 221.56 938.19 222.159C937.59 222.759 936.841 223.058 935.942 223.058H914.059C913.06 223.058 912.261 222.909 911.661 222.609C911.062 222.309 910.562 221.759 910.163 220.96C908.864 218.062 906.815 215.565 904.018 213.466C901.22 211.268 897.323 210.169 892.327 210.169C880.437 210.169 874.192 216.464 873.592 229.054C873.492 231.851 873.442 236.198 873.442 242.093C873.442 247.888 873.492 252.235 873.592 255.132C874.192 268.322 880.587 274.916 892.777 274.916C898.672 274.916 903.368 273.418 906.865 270.42C910.462 267.322 912.261 262.626 912.261 256.331V253.484H898.172C897.073 253.484 896.174 253.134 895.474 252.435C894.775 251.635 894.425 250.686 894.425 249.587V238.496C894.425 237.397 894.775 236.498 895.474 235.798C896.174 234.999 897.073 234.599 898.172 234.599H935.942C937.041 234.599 937.94 234.999 938.639 235.798C939.339 236.498 939.689 237.397 939.689 238.496V255.582C939.689 264.075 937.74 271.419 933.843 277.614C929.946 283.709 924.401 288.405 917.207 291.703C910.113 294.9 901.819 296.499 892.327 296.499ZM675.32 473C674.321 473 673.421 472.65 672.622 471.951C671.922 471.152 671.573 470.252 671.573 469.253V391.616H644.894C643.895 391.616 642.996 391.266 642.197 390.567C641.497 389.768 641.147 388.868 641.147 387.869V371.832C641.147 370.733 641.497 369.834 642.197 369.134C642.996 368.435 643.895 368.085 644.894 368.085H725.529C726.628 368.085 727.527 368.435 728.227 369.134C728.926 369.834 729.276 370.733 729.276 371.832V387.869C729.276 388.968 728.926 389.868 728.227 390.567C727.527 391.266 726.628 391.616 725.529 391.616H698.851V469.253C698.851 470.252 698.501 471.152 697.801 471.951C697.102 472.65 696.203 473 695.104 473H675.32ZM743.528 383.822C742.429 383.822 741.53 383.473 740.831 382.773C740.131 382.074 739.781 381.175 739.781 380.075V366.586C739.781 365.487 740.131 364.588 740.831 363.889C741.53 363.189 742.429 362.839 743.528 362.839H761.514C762.613 362.839 763.512 363.189 764.212 363.889C764.911 364.588 765.261 365.487 765.261 366.586V380.075C765.261 381.175 764.911 382.074 764.212 382.773C763.512 383.473 762.613 383.822 761.514 383.822H743.528ZM743.678 473C742.579 473 741.68 472.65 740.98 471.951C740.281 471.251 739.931 470.352 739.931 469.253V398.81C739.931 397.711 740.281 396.812 740.98 396.112C741.68 395.413 742.579 395.063 743.678 395.063H761.364C762.463 395.063 763.362 395.413 764.062 396.112C764.761 396.812 765.111 397.711 765.111 398.81V469.253C765.111 470.252 764.761 471.152 764.062 471.951C763.362 472.65 762.463 473 761.364 473H743.678ZM786.563 473C785.464 473 784.565 472.65 783.866 471.951C783.166 471.251 782.816 470.352 782.816 469.253V398.81C782.816 397.711 783.166 396.812 783.866 396.112C784.565 395.413 785.464 395.063 786.563 395.063H802.9C803.999 395.063 804.898 395.413 805.598 396.112C806.297 396.812 806.647 397.711 806.647 398.81V403.906C808.945 400.909 811.993 398.461 815.79 396.562C819.686 394.564 824.033 393.565 828.829 393.565C839.82 393.565 847.414 397.861 851.61 406.454C854.009 402.657 857.356 399.56 861.652 397.162C865.949 394.764 870.545 393.565 875.441 393.565C883.634 393.565 890.279 396.362 895.375 401.958C900.571 407.453 903.169 415.697 903.169 426.688V469.253C903.169 470.252 902.819 471.152 902.119 471.951C901.42 472.65 900.521 473 899.422 473H882.036C880.937 473 879.987 472.65 879.188 471.951C878.489 471.251 878.139 470.352 878.139 469.253V427.737C878.139 422.741 877.09 419.144 874.991 416.946C872.993 414.747 870.245 413.648 866.748 413.648C863.551 413.648 860.903 414.797 858.805 417.095C856.706 419.294 855.657 422.841 855.657 427.737V469.253C855.657 470.252 855.307 471.152 854.608 471.951C853.909 472.65 853.009 473 851.91 473H834.524C833.425 473 832.526 472.65 831.827 471.951C831.127 471.251 830.777 470.352 830.777 469.253V427.737C830.777 422.841 829.678 419.294 827.48 417.095C825.382 414.797 822.684 413.648 819.387 413.648C816.189 413.648 813.491 414.797 811.293 417.095C809.195 419.294 808.146 422.791 808.146 427.587V469.253C808.146 470.252 807.796 471.152 807.097 471.951C806.397 472.65 805.498 473 804.399 473H786.563ZM956.078 474.499C944.088 474.499 934.645 471.251 927.751 464.757C920.857 458.262 917.26 448.82 916.96 436.43V431.184C917.359 419.394 921.006 410.201 927.901 403.606C934.895 396.912 944.238 393.565 955.928 393.565C964.421 393.565 971.565 395.313 977.361 398.81C983.256 402.207 987.652 406.904 990.55 412.899C993.548 418.894 995.046 425.788 995.046 433.582V437.179C995.046 438.178 994.697 439.078 993.997 439.877C993.298 440.576 992.398 440.926 991.299 440.926H943.338V441.975C943.538 446.671 944.687 450.468 946.786 453.366C948.884 456.264 951.931 457.712 955.928 457.712C958.426 457.712 960.474 457.213 962.073 456.214C963.672 455.115 965.121 453.816 966.42 452.317C967.319 451.218 968.018 450.568 968.518 450.368C969.117 450.069 970.017 449.919 971.216 449.919H989.801C990.7 449.919 991.449 450.219 992.049 450.818C992.748 451.318 993.098 452.017 993.098 452.916C993.098 455.514 991.599 458.512 988.602 461.909C985.704 465.306 981.457 468.254 975.862 470.752C970.266 473.25 963.672 474.499 956.078 474.499ZM968.668 426.088V425.788C968.668 420.892 967.519 417.045 965.221 414.248C963.022 411.35 959.925 409.901 955.928 409.901C952.031 409.901 948.934 411.35 946.636 414.248C944.437 417.045 943.338 420.892 943.338 425.788V426.088H968.668ZM1012.84 473C1011.75 473 1010.85 472.65 1010.15 471.951C1009.45 471.251 1009.1 470.352 1009.1 469.253V398.81C1009.1 397.711 1009.45 396.812 1010.15 396.112C1010.85 395.413 1011.75 395.063 1012.84 395.063H1030.08C1031.18 395.063 1032.08 395.463 1032.78 396.262C1033.58 396.962 1033.98 397.811 1033.98 398.81V404.805C1039.47 398.311 1046.87 395.063 1056.16 395.063H1062.75C1063.85 395.063 1064.75 395.413 1065.45 396.112C1066.15 396.812 1066.5 397.711 1066.5 398.81V414.248C1066.5 415.247 1066.15 416.146 1065.45 416.946C1064.75 417.645 1063.85 417.995 1062.75 417.995H1048.22C1044.12 417.995 1040.92 419.144 1038.62 421.442C1036.43 423.64 1035.33 426.788 1035.33 430.884V469.253C1035.33 470.352 1034.93 471.251 1034.13 471.951C1033.43 472.65 1032.53 473 1031.43 473H1012.84Z" fill="#BEC2D4"/>
</g>
<defs>
<clipPath id="clip0">
<rect width="1171" height="612.307" fill="white"/>
</clipPath>
</defs>
</svg>
